<svg id="Grupo_1213627" data-name="Grupo 1213627" xmlns="http://www.w3.org/2000/svg" xmlns:xlink="http://www.w3.org/1999/xlink" width="96" height="96" viewBox="0 0 96 96">
  <defs>
    <clipPath id="clip-path">
      <rect id="Rectángulo_463566" data-name="Rectángulo 463566" width="49.5" height="49.539" fill="#19538d"/>
    </clipPath>
  </defs>
  <circle id="Elipse_13890" data-name="Elipse 13890" cx="48" cy="48" r="48" fill="#5a9ad7"/>
  <path id="Intersección_1" data-name="Intersección 1" d="M0,47.89A47.893,47.893,0,0,1,79.511,11.92L1.1,58.131A48,48,0,0,1,0,47.89Z" transform="translate(0.109 0.107)" fill="#19538d"/>
  <path id="Trazado_1032916" data-name="Trazado 1032916" d="M40,0A40,40,0,1,1,0,40,40,40,0,0,1,40,0Z" transform="translate(7.965 7.87)" fill="#e6f3ff"/>
  <g id="Grupo_1188343" data-name="Grupo 1188343" transform="translate(22.001 22)">
    <rect id="Rectángulo_459838" data-name="Rectángulo 459838" width="52" height="52" transform="translate(-1.036 -0.468)" fill="none"/>
    <g id="Grupo_1213682" data-name="Grupo 1213682" transform="translate(-0.036 1.532)">
      <g id="Grupo_1213681" data-name="Grupo 1213681" clip-path="url(#clip-path)">
        <path id="Trazado_1280817" data-name="Trazado 1280817" d="M39.827,44.1a6.5,6.5,0,0,1-6.534,5.433H4.8A4.893,4.893,0,0,1,.022,45.15,4.764,4.764,0,0,1,4,40L4.039,3.616C4.041,1.435,6.166,0,8.123,0L25.668.006a3.89,3.89,0,0,1,3.811,3.6l.043,15.587A13.55,13.55,0,1,1,39.827,44.1m-11.9-31.3V3.89A2.379,2.379,0,0,0,25.653,1.6H7.876A2.32,2.32,0,0,0,5.618,3.744L5.6,12.811ZM8.877,15.972l15.818,0A1.552,1.552,0,0,1,26.328,17.5l.019,4.013,1.584-1.353-.007-5.748H5.6V25.57l17.967,0,.83-1.609H8.867A1.608,1.608,0,0,1,7.2,22.495l0-4.992a1.574,1.574,0,0,1,1.683-1.531m-.1,6.38H24.743V17.565H8.776Zm31.546,1.6a9.058,9.058,0,0,0-2.5-4.054,2.873,2.873,0,0,0-4,.184,9.2,9.2,0,0,0-2.313,3.872ZM29.8,23.949a15.946,15.946,0,0,1,1.942-4.006,11.4,11.4,0,0,0-5.354,4Zm15.657,0a11.6,11.6,0,0,0-5.332-4,17.259,17.259,0,0,1,1.9,4Zm-16.6,4.423.475-2.813-4.019.013-.669,1.591a11.708,11.708,0,0,1,4.214,1.208m12.636,2a25.132,25.132,0,0,0-.638-4.811l-9.873.006a36.829,36.829,0,0,0-.595,3.839l1.077.964Zm6.375-.01a11.833,11.833,0,0,0-1.366-4.8H42.512a34.814,34.814,0,0,1,.594,4.816Zm-38.782-1.6,9.373.01a11.518,11.518,0,0,1,4.184-1.592l-17.048-.01L5.6,35l1.582-1.494,0-3.1c0-1.152.788-1.65,1.9-1.649M5,47.939l28.834,0A4.835,4.835,0,1,0,32.7,38.342,8.8,8.8,0,0,0,15.628,34.66,6.434,6.434,0,0,0,5.75,41.523c-2.048-.275-3.929.813-4.136,2.882A3.244,3.244,0,0,0,5,47.939m9.865-15.473,1.508-2.094-7.607.005.04,2.221a8.23,8.23,0,0,1,6.059-.132m26.008,4.251a25.447,25.447,0,0,0,.6-4.749l-8.788.008a10.032,10.032,0,0,1,1.6,4.745Zm5.634.007a12.259,12.259,0,0,0,1.358-4.753H43.114a36.95,36.95,0,0,1-.607,4.745Zm-6.126,1.6-2.562-.032L39.4,40.457Zm5.083,0-3.443-.022a17.508,17.508,0,0,1-1.9,4,11.462,11.462,0,0,0,5.34-3.983" transform="translate(0.001 0)" fill="#19538d"/>
        <path id="Trazado_1280818" data-name="Trazado 1280818" d="M231.363,65.928l-12.882.005,2.191,1.778-.99,1.253-4.763-3.817,4.732-3.8,1.015,1.211-2.1,1.772,12.8.014Z" transform="translate(-183.457 -52.366)" fill="#19538d"/>
        <path id="Trazado_1280819" data-name="Trazado 1280819" d="M236.4,22.246H223.6v-1.6l12.83-.018-2.141-1.786.975-1.252,4.782,3.819-4.771,3.812-1-1.236Z" transform="translate(-190.865 -15.013)" fill="#19538d"/>
        <path id="Trazado_1280820" data-name="Trazado 1280820" d="M169.045,215.188a5.575,5.575,0,0,0-5.558-6.284l.021-1.605a7.154,7.154,0,0,1,7.106,8.064Z" transform="translate(-139.554 -176.952)" fill="#19538d"/>
        <path id="Trazado_1280821" data-name="Trazado 1280821" d="M179.294,275.111a2.392,2.392,0,1,1-2.392-2.392,2.392,2.392,0,0,1,2.392,2.392m-1.59,0a.792.792,0,1,0-.792.792.792.792,0,0,0,.792-.792" transform="translate(-148.964 -232.795)" fill="#19538d"/>
        <path id="Trazado_1280822" data-name="Trazado 1280822" d="M92.042,275.1a2.393,2.393,0,1,1-2.393-2.393,2.393,2.393,0,0,1,2.393,2.393m-1.586,0a.8.8,0,1,0-.8.8.8.8,0,0,0,.8-.8" transform="translate(-74.483 -232.786)" fill="#19538d"/>
        <path id="Trazado_1280823" data-name="Trazado 1280823" d="M135.689,275.109a2.392,2.392,0,1,1-2.392-2.392,2.392,2.392,0,0,1,2.392,2.392m-1.608,0a.792.792,0,1,0-.792.792.792.792,0,0,0,.792-.792" transform="translate(-111.741 -232.793)" fill="#19538d"/>
        <path id="Trazado_1280824" data-name="Trazado 1280824" d="M53.895,241.545a3.273,3.273,0,0,0-2.638,1.432,3.192,3.192,0,0,0-.292,3.066l-1.445.624a4.714,4.714,0,0,1,.456-4.634,4.784,4.784,0,0,1,3.9-2.061Z" transform="translate(-41.924 -204.842)" fill="#19538d"/>
        <path id="Trazado_1280825" data-name="Trazado 1280825" d="M140.572,210.708l-.759-1.417,1.672-.659.4,1.548Z" transform="translate(-119.346 -178.09)" fill="#19538d"/>
        <path id="Trazado_1280826" data-name="Trazado 1280826" d="M66.631,29.786l-15.848,0a1.673,1.673,0,0,1-1.694-1.747V23.5a1.672,1.672,0,0,1,1.835-1.733h15.5A1.663,1.663,0,0,1,68.245,23.5v4.552a1.647,1.647,0,0,1-1.612,1.734m.015-6.434-15.969.009,0,4.841,15.969-.009Z" transform="translate(-41.903 -18.582)" fill="#19538d"/>
        <rect id="Rectángulo_463562" data-name="Rectángulo 463562" width="1.599" height="1.596" transform="translate(18.375 19.157) rotate(-0.095)" fill="#19538d"/>
        <rect id="Rectángulo_463563" data-name="Rectángulo 463563" width="1.593" height="1.597" transform="translate(21.567 19.157)" fill="#19538d"/>
        <rect id="Rectángulo_463564" data-name="Rectángulo 463564" width="1.591" height="1.621" transform="translate(10.37 6.38)" fill="#19538d"/>
        <rect id="Rectángulo_463565" data-name="Rectángulo 463565" width="1.611" height="1.613" transform="translate(13.546 7.999) rotate(-89.849)" fill="#19538d"/>
      </g>
    </g>
  </g>
</svg>
