<svg id="Grupo_1071455" data-name="Grupo 1071455" xmlns="http://www.w3.org/2000/svg" xmlns:xlink="http://www.w3.org/1999/xlink" width="69.323" height="70" viewBox="0 0 69.323 70">
  <defs>
    <clipPath id="clip-path">
      <rect id="Rectángulo_463504" data-name="Rectángulo 463504" width="42.027" height="42.029" fill="#fff"/>
    </clipPath>
  </defs>
  <ellipse id="Elipse_5614" data-name="Elipse 5614" cx="34.661" cy="35" rx="34.661" ry="35" transform="translate(0)" fill="#19538d"/>
  <g id="Grupo_1213566" data-name="Grupo 1213566" transform="translate(13.648 13.985)">
    <g id="Grupo_1213565" data-name="Grupo 1213565" clip-path="url(#clip-path)">
      <path id="Trazado_1280484" data-name="Trazado 1280484" d="M21.647,89.2a4.48,4.48,0,1,0-1.263.008l-2.891.087a4.294,4.294,0,0,0-3.963,4.215l-.029,3.2a1.781,1.781,0,0,0,1.024,1.516l-12.994.009A1.483,1.483,0,0,1,0,96.686l0-31.5H42.024l0,31.634a1.49,1.49,0,0,1-1.663,1.415l-12.86-.01a1.767,1.767,0,0,0,1.019-1.515V93.791a4.373,4.373,0,0,0-4-4.5ZM14.2,80.215a.818.818,0,0,0,.819-.733l0-10.455a.858.858,0,0,0-.708-.824l-10.583,0a.788.788,0,0,0-.737.68L3,79.49a.73.73,0,0,0,.728.722Zm24.1,0a.725.725,0,0,0,.726-.724l0-10.606a.8.8,0,0,0-.738-.679H27.711a.853.853,0,0,0-.706.824V79.481a.834.834,0,0,0,.824.733ZM14.2,84.73a.823.823,0,0,0,.812-.759.853.853,0,0,0-.694-.756l-10.7.006c-.4,0-.679.605-.624.877a.821.821,0,0,0,.875.632Zm24.157,0a.793.793,0,0,0,.686-.763.977.977,0,0,0-.63-.75l-10.7.007a.8.8,0,0,0-.69.852.84.84,0,0,0,.8.66ZM14.249,89.259a.873.873,0,0,0,.77-.753c.018-.233-.271-.747-.56-.746l-10.97.006c-.33,0-.552.624-.489.868a.919.919,0,0,0,.728.628Zm24.1,0c.4,0,.678-.508.693-.752.014-.217-.24-.739-.5-.739l-10.969,0c-.354,0-.62.6-.55.854a.932.932,0,0,0,.817.648Z" transform="translate(0 -56.211)" fill="#fff"/>
      <path id="Trazado_1280485" data-name="Trazado 1280485" d="M42.045,7.479l-42.02,0L.037,1.247A1.428,1.428,0,0,1,1.3,0H40.771a1.518,1.518,0,0,1,1.277,1.245ZM6.011,3.733A2.248,2.248,0,1,0,3.763,5.981,2.248,2.248,0,0,0,6.011,3.733m6,0A2.251,2.251,0,1,0,9.764,5.981,2.251,2.251,0,0,0,12.015,3.73M40.423,4.8,39.371,3.72l1.056-1.077a.968.968,0,0,0-.024-.927c-.142-.186-.751-.32-.929-.152L38.315,2.659,37.229,1.612a.84.84,0,0,0-1.05.174.888.888,0,0,0,.143,1.005l.955.93-1.013,1a.813.813,0,0,0,.047,1.081.887.887,0,0,0,1-.023L38.32,4.761l.925.956a.856.856,0,0,0,1.09.081.929.929,0,0,0,.088-1m-6.465-.309c.294,0,.65-.579.611-.83C34.533,3.43,34.187,3,33.916,3l-3.342.017c-.336,0-.578.575-.509.873.053.232.428.625.7.623Z" transform="translate(-0.022)" fill="#fff"/>
      <rect id="Rectángulo_463502" data-name="Rectángulo 463502" width="9.013" height="9.007" transform="translate(4.494 13.498)" fill="#fff"/>
      <rect id="Rectángulo_463503" data-name="Rectángulo 463503" width="9.013" height="9.007" transform="translate(28.52 13.498)" fill="#fff"/>
    </g>
  </g>
</svg>
