<svg xmlns="http://www.w3.org/2000/svg" xmlns:xlink="http://www.w3.org/1999/xlink" width="105" height="105" viewBox="0 0 105 105">
  <defs>
    <clipPath id="clip-path">
      <rect id="Rectángulo_463501" data-name="Rectángulo 463501" width="82" height="82" fill="#19538d"/>
    </clipPath>
  </defs>
  <g id="Grupo_1213520" data-name="Grupo 1213520" transform="translate(-705.629 -1684.863)">
    <g id="Grupo_1178970" data-name="Grupo 1178970" transform="translate(705.626 1684.863)">
      <path id="Sustracción_110" data-name="Sustracción 110" d="M0,0H105V105H0Z" fill="#fff"/>
    </g>
    <g id="Grupo_1213564" data-name="Grupo 1213564" transform="translate(717.629 1696.864)">
      <g id="Grupo_1213563" data-name="Grupo 1213563" clip-path="url(#clip-path)">
        <path id="Trazado_1280478" data-name="Trazado 1280478" d="M71.354,79.748c-.156.732-.6,2.123-1.252,2.142L66.13,82c-.466.013-1.152-.726-1.238-1.163-.2-1.011-.811-1.4-1.715-1.74-1.925-.734-2.332.7-3.415.273a4.359,4.359,0,0,1-1.341-1.294A40.92,40.92,0,0,1,20.84,76.655,14.285,14.285,0,0,1,11.974,82,14.231,14.231,0,0,1,.013,68.464L.021,58.83c0-.43.794-.972,1.164-1.138l2-.9A41,41,0,0,1,4.163,23,3.815,3.815,0,0,1,0,19.036L.014,3.806A3.659,3.659,0,0,1,3.84,0H29.127a4.779,4.779,0,0,1,2.318,1.121A41.114,41.114,0,0,1,58.277,3.829,14.055,14.055,0,0,1,78.136,23.706,41.045,41.045,0,0,1,78.1,58.4,7.416,7.416,0,0,1,79.3,59.588a2.286,2.286,0,0,1-.241,1.776,1.821,1.821,0,0,0,.042,1.8c.38.934.665,1.5,1.756,1.732A1.642,1.642,0,0,1,82,66.3l-.115,3.815c-.018.592-1.4,1.125-2.088,1.193l-1.074,2.485a4.839,4.839,0,0,1,.685,2.4,23.221,23.221,0,0,1-3.079,3.093c-.5.418-1.827-.147-2.4-.6ZM28.85,20.31a1.131,1.131,0,0,0,.9-.8V3.516a1.2,1.2,0,0,0-.844-.876l-25.1,0A1.139,1.139,0,0,0,2.647,3.771l.006,15.69a1.275,1.275,0,0,0,.9.85ZM56.171,71.394a6.8,6.8,0,0,1-2.146-1.06l-.109-3.809a1.552,1.552,0,0,1,1.275-1.657c.91-.192,1.249-.764,1.578-1.593a2.193,2.193,0,0,0-.042-2.187,1.678,1.678,0,0,1,.193-1.945L59.3,56.778a1.741,1.741,0,0,1,1.786-.07,2.163,2.163,0,0,0,2.2.049c.824-.326,1.394-.675,1.592-1.574a1.543,1.543,0,0,1,1.656-1.272l3.8.1a8.609,8.609,0,0,1,1.094,2.171l2.346.933,2.285-.716a38.253,38.253,0,0,0,0-30.887,14.058,14.058,0,0,1-19.6-19.617A38.511,38.511,0,0,0,32.416,3.605l-.007,16.134a3.632,3.632,0,0,1-3.163,3.2l-7-.005-.011.954,2.552.12c2.2.1,3.094,2.048,2.88,4-.1.942-.258,1.65-1.368,1.7l-20.533,0-1.118-.86A38.177,38.177,0,0,0,5.636,55.77l6.341-2.64L23.118,57.9a3,3,0,0,1,.719,1.138l.005,8.492a15.793,15.793,0,0,1-1.537,6.933,38.249,38.249,0,0,0,34.1,1.6l.708-2.3Zm10.4-65.143L66.492,3.7,64.4,5.884ZM71.4,5.889,69.245,3.663l-.062,2.587ZM59.07,12.758a36.98,36.98,0,0,1,1.289-5.191l-1.434-.614a12.3,12.3,0,0,0-2.381,5.793Zm17.652.03,2.526-.035a11.757,11.757,0,0,0-2.442-5.815l-1.371.637a41.422,41.422,0,0,1,1.287,5.214m-10.176-.022L66.536,8.9l-3.609-.535a27.164,27.164,0,0,0-1.174,4.4Zm7.477-.007a24.848,24.848,0,0,0-1.174-4.383L69.2,8.891l-.007,3.89ZM60.35,20.523a37.2,37.2,0,0,1-1.258-5.062l-2.541-.034a12.585,12.585,0,0,0,2.434,5.828Zm6.2-1.3-.01-3.8-4.742.025a20.58,20.58,0,0,0,1.193,4.331Zm6.28.55a19.978,19.978,0,0,0,1.142-4.327L69.2,15.428l0,3.8Zm4.032,1.4a11.9,11.9,0,0,0,2.366-5.743l-2.558.034a30.573,30.573,0,0,1-1.254,5.1Zm-10.4,3.252.11-2.538-2.1.382ZM71.319,22.3l-2.145-.428.083,2.605Zm-61.1,1.577.028-.944-3.024.008-.609,1.137Zm2.674.069h6.7V22.929h-6.7Zm12.079,3.06-.419-.454H7.891l-.45.489Zm-3.8,41.007.033-8.047L11.95,55.984,2.642,59.957,2.7,68.463a11.4,11.4,0,0,0,9.269,10.843,11.631,11.631,0,0,0,9.2-11.293M68.858,79.084c.266-.7.6-1.5,1.044-1.685l3.309-1.381c.443-.185,1.394.168,1.955.368.431.154,1.385-.788,1.229-1.222a3.679,3.679,0,0,1-.365-1.957L77.5,69.687a6.435,6.435,0,0,1,1.781-.914l-.024-1.694c-.7-.22-1.585-.531-1.787-.946L76,62.566c-.178-.431.211-1.32.492-1.943a3.716,3.716,0,0,0-1.118-1.267c-.534.266-1.488.746-1.956.6L69.887,58.5c-.469-.193-.842-1.155-1.113-1.708-.249-.328-1.494-.352-1.682.027l-.861,1.618L62.553,59.92c-.374.15-1.163-.173-1.661-.376-.611-.249-1.584.724-1.337,1.336.2.493.525,1.289.369,1.676l-1.473,3.66a9.954,9.954,0,0,1-1.61.872c-.422.2-.369,1.573.068,1.746.591.234,1.432.62,1.6,1.046l1.438,3.548c.182.449-.291,1.377-.616,1.946a8.919,8.919,0,0,0,1.273,1.134c.683-.331,1.526-.7,1.954-.52l3.576,1.462c.446.254.8,1.255.989,1.86.474.094,1.492.056,1.731-.227" transform="translate(0)" fill="#19538d"/>
        <path id="Trazado_1280479" data-name="Trazado 1280479" d="M140.446,132.128l-19.258.01a2.722,2.722,0,0,1-2.7-2.7l-.015-15.022a2.8,2.8,0,0,1,3.183-2.894l-.01-2.929a9.089,9.089,0,0,1,18.17-.494l.074,3.429a2.771,2.771,0,0,1,3.128,2.652l.006,15.263a2.705,2.705,0,0,1-2.581,2.689m-4.155-23.7.017,3.069.9-.012-.1-3.851c-.084-3.3-3.223-5.659-6.357-5.658a6.366,6.366,0,0,0-6.359,5.657c-.115,1.307-.082,2.54-.094,3.858l.9.008.029-3.167a5.532,5.532,0,0,1,11.063.1m-2.632,3.086-.029-3.179a2.875,2.875,0,0,0-5.75,0l-.007,3.182Zm6.713,2.65H121.141V129.5h19.232Z" transform="translate(-89.767 -75.253)" fill="#19538d"/>
        <path id="Trazado_1280480" data-name="Trazado 1280480" d="M32.486,269.238l-2.945-2.853a1.4,1.4,0,0,1-.07-1.8,1.319,1.319,0,0,1,1.942-.055l1.727,1.726,5.382-4.91a1.484,1.484,0,0,1,1.865-.09,1.362,1.362,0,0,1,0,1.978l-5.98,5.444c-.362.33-1.378,1.086-1.921.56" transform="translate(-22.106 -197.717)" fill="#19538d"/>
        <path id="Trazado_1280481" data-name="Trazado 1280481" d="M41.349,31.725H20.9a1.434,1.434,0,0,1-1.516-1.446l0-11.172a1.681,1.681,0,0,1,1.54-1.731H40.763a1.588,1.588,0,0,1,1.65,1.54l.007,11.57a1.592,1.592,0,0,1-1.07,1.239m-1.587-11.7H22.03V29.1H39.761Z" transform="translate(-14.684 -13.164)" fill="#19538d"/>
        <path id="Trazado_1280482" data-name="Trazado 1280482" d="M262.973,254.681a8.213,8.213,0,1,1-8.213-8.214,8.214,8.214,0,0,1,8.213,8.214m-2.645,0a5.571,5.571,0,1,0-5.571,5.572,5.572,5.572,0,0,0,5.571-5.572" transform="translate(-186.802 -186.731)" fill="#19538d"/>
        <path id="Trazado_1280483" data-name="Trazado 1280483" d="M158.194,174.994a3.112,3.112,0,0,1-3.021,3.344,3.06,3.06,0,0,1-3.011-3.23l.026-1.986a4.456,4.456,0,0,1-.263-6.38,4.51,4.51,0,0,1,6.383-.12,4.379,4.379,0,0,1-.074,6.375Zm-2.69-.025.162-3.249a2.094,2.094,0,0,0,1.279-2.271,1.812,1.812,0,0,0-3.578.217c-.1.839.454,1.435,1.281,2.084.395,1.614-.035,3.85.292,3.851h.469c.111,0,.08-.325.1-.633" transform="translate(-114.185 -125.279)" fill="#19538d"/>
      </g>
    </g>
  </g>
</svg>
