<svg xmlns="http://www.w3.org/2000/svg" xmlns:xlink="http://www.w3.org/1999/xlink" width="105" height="105" viewBox="0 0 105 105">
  <defs>
    <clipPath id="clip-path">
      <rect id="Rectángulo_466150" data-name="Rectángulo 466150" width="89.005" height="89.009" fill="#19538d"/>
    </clipPath>
  </defs>
  <g id="Grupo_1213700" data-name="Grupo 1213700" transform="translate(-705.629 -1684.863)">
    <g id="Grupo_1178970" data-name="Grupo 1178970" transform="translate(705.626 1684.863)">
      <path id="Sustracción_110" data-name="Sustracción 110" d="M0,0H105V105H0Z" fill="#fff"/>
    </g>
    <g id="Grupo_1215602" data-name="Grupo 1215602" transform="translate(713.629 1692.863)">
      <g id="Grupo_1215601" data-name="Grupo 1215601" clip-path="url(#clip-path)">
        <path id="Trazado_1283906" data-name="Trazado 1283906" d="M67.84,52.115c-1.288,2.185-3.435,2.837-6.087,2.335l-.022,20.159A4.4,4.4,0,0,1,66.012,79.7,10.088,10.088,0,0,1,56.106,89l-46.114.006A10.115,10.115,0,0,1,.009,79.128a4.368,4.368,0,0,1,4.341-4.52l.073-33.659c.008-3.87,3.695-6.517,7.3-6.517l32.823,0a4.469,4.469,0,0,1,3.032-3.489,2.21,2.21,0,0,0,1.148-2.23l-.588-2.826-13.7.019,0-11.536H20.139l0,11.531H.011L0,0H20.137l0,11.481H34.428L34.441,0H54.562l.013,11.48,14.291,0V0H89.005l-.012,25.9-10.8.007-.435,2.386a2.036,2.036,0,0,0,.634,2.464,4.956,4.956,0,0,1,3.468,5.208c-.038,1.986-.727,3.931-2.8,4.688A2.254,2.254,0,0,0,77.8,43.8c.911,1.962.006,3.837-1.341,5.255a4.972,4.972,0,0,1-6.005,1.293c-1.014-.455-2.439.6-2.612,1.771M2.866,2.86,2.86,23.025l14.4,0L17.27,2.864ZM51.7,21.258l.005-18.393-14.412,0,0,20.174,12.371-.043A17.6,17.6,0,0,1,51.7,21.258m34.437,1.758,0-20.154-14.4.007V20.976a4.7,4.7,0,0,1,4.81,2.039ZM63.167,17.2c2.874-.046,4.261,1.293,5.553,4.111a61.4,61.4,0,0,0,.1-6.937l-14.254.006.014,6.534a3.455,3.455,0,0,0,2.179.556c2.249-.451,1.091-4.184,6.407-4.269m1.9,33.889a5.272,5.272,0,0,1,7.527-3.079c1.045-.048,2.727-1.462,2.613-2.538-.443-1.864-.912-3.182.012-5.046a5.968,5.968,0,0,1,3.362-2.73,4.7,4.7,0,0,0,.025-3.66,5.092,5.092,0,0,1-3.61-6.654,2.223,2.223,0,0,0-.648-2.727,2.125,2.125,0,0,0-2.69-.6,4.841,4.841,0,0,1-6.066-2.4,2.2,2.2,0,0,0-2.559-1.574,2.135,2.135,0,0,0-2.269,1.517A4.851,4.851,0,0,1,54.505,24a2.084,2.084,0,0,0-2.451.613c-1.1.986-1.108,1.693-.657,2.971,1.027,2.91-.94,5.514-3.809,6.687a39.485,39.485,0,0,0,5.663.122,10.032,10.032,0,1,1,8.494,11.445l.007,5.66c.905.341,2.726.473,3.31-.411M61.57,39.878l.2,3a7.146,7.146,0,1,0-5.618-8.313l2.691,1.307a4.311,4.311,0,1,1,2.723,4m3.027-4.01A1.427,1.427,0,1,0,63.169,37.3,1.427,1.427,0,0,0,64.6,35.868M58.847,74.639l0-33.138a4.328,4.328,0,0,0-4.009-4.2l-43.791,0c-1.986.416-3.811,1.755-3.812,3.926L7.212,74.642Zm2.738,2.887L43,77.546a5.277,5.277,0,0,1-1.023,4.275A4.857,4.857,0,0,1,38.6,83.3l-11.342-.013a4.676,4.676,0,0,1-3.428-1.736,5.487,5.487,0,0,1-.789-4.016l-18.905,0A1.5,1.5,0,0,0,2.869,78.88a7.265,7.265,0,0,0,7.337,7.274l45.454.018a7.329,7.329,0,0,0,7.5-7.065,1.427,1.427,0,0,0-1.574-1.581M39.126,80.321c1.1-.047,1.224-1.761.987-2.775l-14.2,0c-.3,1.2.007,2.78,1.127,2.813,4.013.116,7.965.142,12.082-.034" fill="#19538d"/>
        <path id="Trazado_1283907" data-name="Trazado 1283907" d="M81.434,184.187l-40.1.006c-1.3,0-2.962-.927-2.963-2.4l-.011-26.559c0-1.737,1.7-2.632,3.24-2.631l39.939.015a2.777,2.777,0,0,1,2.673,2.607v26.309a2.767,2.767,0,0,1-2.774,2.654m-.09-28.7H41.2v25.824H81.344Z" transform="translate(-28.262 -112.442)" fill="#19538d"/>
        <rect id="Rectángulo_466141" data-name="Rectángulo 466141" width="8.641" height="2.868" transform="translate(5.727 5.724)" fill="#19538d"/>
        <rect id="Rectángulo_466142" data-name="Rectángulo 466142" width="8.641" height="2.914" transform="translate(5.727 11.464)" fill="#19538d"/>
        <rect id="Rectángulo_466143" data-name="Rectángulo 466143" width="8.641" height="2.895" transform="translate(5.728 17.254)" fill="#19538d"/>
        <rect id="Rectángulo_466144" data-name="Rectángulo 466144" width="8.693" height="2.868" transform="translate(40.155 5.726)" fill="#19538d"/>
        <rect id="Rectángulo_466145" data-name="Rectángulo 466145" width="8.685" height="2.914" transform="translate(40.16 11.464)" fill="#19538d"/>
        <rect id="Rectángulo_466146" data-name="Rectángulo 466146" width="8.685" height="2.895" transform="translate(40.16 17.254)" fill="#19538d"/>
        <rect id="Rectángulo_466147" data-name="Rectángulo 466147" width="8.649" height="2.868" transform="translate(74.628 5.724)" fill="#19538d"/>
        <rect id="Rectángulo_466148" data-name="Rectángulo 466148" width="8.641" height="2.914" transform="translate(74.636 11.464)" fill="#19538d"/>
        <rect id="Rectángulo_466149" data-name="Rectángulo 466149" width="8.641" height="2.895" transform="translate(74.636 17.254)" fill="#19538d"/>
        <path id="Trazado_1283908" data-name="Trazado 1283908" d="M87.729,194.592l-20.164.087a7.269,7.269,0,0,1-7.508-7.316,7.093,7.093,0,0,1,8.073-6.944,10.075,10.075,0,0,1,18.257-.037,7.113,7.113,0,0,1,8.039,6.21c.5,3.856-2.366,7.982-6.7,8m.214-2.93c3.063-.023,4.315-3.635,3.325-5.847-1.145-2.559-4.008-3.391-6.748-1.791-.623-3.993-3.585-6.61-7.354-6.567a7.316,7.316,0,0,0-7.136,6.563c-2.058-1.118-4.147-1.157-5.717.27a4.389,4.389,0,0,0-.948,5.121c.9,1.833,2.643,2.421,4.751,2.405Z" transform="translate(-44.25 -128.641)" fill="#19538d"/>
      </g>
    </g>
  </g>
</svg>
