<svg xmlns="http://www.w3.org/2000/svg" xmlns:xlink="http://www.w3.org/1999/xlink" width="85" height="85" viewBox="0 0 85 85">
  <defs>
    <clipPath id="clip-path">
      <rect id="Rectángulo_466014" data-name="Rectángulo 466014" width="67.759" height="67.801" fill="#1e535a"/>
    </clipPath>
  </defs>
  <g id="Grupo_1214212" data-name="Grupo 1214212" transform="translate(-705.873 -410.189)">
    <g id="Grupo_1215493" data-name="Grupo 1215493">
      <path id="Sustracción_110" data-name="Sustracción 110" d="M15975.961,19829.512h85v85h-85Z" transform="translate(-15270.088 -19419.322)" fill="#ffde92"/>
      <g id="Grupo_1215492" data-name="Grupo 1215492" transform="translate(713.873 419.189)">
        <g id="Grupo_1215491" data-name="Grupo 1215491" clip-path="url(#clip-path)">
          <path id="Trazado_1283235" data-name="Trazado 1283235" d="M39.3,62.7a5.429,5.429,0,0,1-10.826.071c-.146-2.4-.069-4.73-.067-7.148A3.592,3.592,0,0,1,29.858,53a8.259,8.259,0,0,1-.266-3.311A16.653,16.653,0,0,1,19.3,41.346a16.363,16.363,0,0,1,.064-15.11l-4.035-.029v6.578l-6.6,0v17.44l1.774.025,2.211,4.373,9.149,0V67.8L.011,67.8,0,50.263l6.532-.023V32.782L0,32.787V17.528l6.525,0v-2.2L0,15.343,0,0H15.331V6.54l4.412-.007A5.521,5.521,0,0,1,25.194.005L42.741.023a5.489,5.489,0,0,1,5.276,6.5l4.527.035a7.645,7.645,0,1,1,11.533,7.656,7.689,7.689,0,0,1,3.477,8.281,7.8,7.8,0,0,1-6.318,5.855l-.011,19.709,6.532.022V67.795L52.429,67.8V48.084l6.6-.028-.015-19.685A7.711,7.711,0,0,1,52.579,21.9l-4.511.008.02,3.814a16.286,16.286,0,0,1,.632,15.082,16.5,16.5,0,0,1-10.5,8.85,11.585,11.585,0,0,1-.3,3.349,3.674,3.674,0,0,1,1.441,2.618c0,2.359.07,4.609-.064,7.079M2.183,2.178l0,10.969,10.966,0,0-10.969ZM41.208,4.349A2.3,2.3,0,0,1,43.7,6.38l.038,14.456,2.15,1.8L45.886,5.316A3.213,3.213,0,0,0,42.75,2.194L25,2.191A3.185,3.185,0,0,0,21.9,5.118l-.024,17.516,2.15-1.795.032-14.474A2.188,2.188,0,0,1,26,4.377Zm24.355,3.3A5.458,5.458,0,1,0,60.1,13.108a5.458,5.458,0,0,0,5.458-5.459M41.546,6.535H26.216v6.612h15.33Zm-26.211,11,0,6.508,4.36-.027V8.742l-4.36,0v6.6l-6.594,0,0,2.192ZM56.1,14.2a7.674,7.674,0,0,1-3.529-5.455l-4.5-.007,0,10.972,4.475-.01a7.827,7.827,0,0,1,3.55-5.5M41.52,19.365l.033-4.027H26.208l.034,4.041a16.459,16.459,0,0,1,15.278-.016m24.039,1.4A5.456,5.456,0,1,0,60.1,26.219a5.456,5.456,0,0,0,5.456-5.456M2.178,30.581H13.144v-10.9H2.178Zm45.9,3.293a14.2,14.2,0,1,0-14.2,14.2,14.2,14.2,0,0,0,14.2-14.2M35.745,52.306a3.082,3.082,0,0,0,.208-2.1l-4.225,0a3.419,3.419,0,0,0,.347,2.109,13.46,13.46,0,0,0,3.669-.008m29.834-2.06-10.964,0,0,15.361,10.964,0ZM19.691,56.829l-8.332,0-2.212-4.4-6.973.01L2.2,65.608,19.689,65.6Zm17.443,5.7.058-6.722A1.238,1.238,0,0,0,36,54.617l-4.247,0a1.229,1.229,0,0,0-1.187,1.19l.064,6.793a3.26,3.26,0,0,0,6.5-.073" transform="translate(0 -0.001)" fill="#1e535a"/>
          <rect id="Rectángulo_466000" data-name="Rectángulo 466000" width="4.375" height="2.218" transform="translate(4.361 54.609)" fill="#1e535a"/>
          <path id="Trazado_1283236" data-name="Trazado 1283236" d="M133.164,121.123a12.015,12.015,0,1,1-12.015-12.015,12.015,12.015,0,0,1,12.015,12.015m-2.181,0a9.834,9.834,0,1,0-9.834,9.834,9.834,9.834,0,0,0,9.834-9.834" transform="translate(-87.269 -87.247)" fill="#1e535a"/>
          <rect id="Rectángulo_466001" data-name="Rectángulo 466001" width="6.58" height="2.194" transform="translate(56.821 61.223)" fill="#1e535a"/>
          <rect id="Rectángulo_466002" data-name="Rectángulo 466002" width="6.583" height="2.198" transform="translate(56.817 52.426)" fill="#1e535a"/>
          <rect id="Rectángulo_466003" data-name="Rectángulo 466003" width="6.579" height="2.215" transform="translate(56.821 56.813)" fill="#1e535a"/>
          <rect id="Rectángulo_466004" data-name="Rectángulo 466004" width="2.182" height="2.218" transform="translate(28.393 8.727)" fill="#1e535a"/>
          <rect id="Rectángulo_466005" data-name="Rectángulo 466005" width="2.204" height="2.218" transform="translate(32.779 8.727)" fill="#1e535a"/>
          <rect id="Rectángulo_466006" data-name="Rectángulo 466006" width="6.579" height="2.183" transform="translate(4.361 4.357)" fill="#1e535a"/>
          <rect id="Rectángulo_466007" data-name="Rectángulo 466007" width="6.579" height="2.218" transform="translate(4.361 8.727)" fill="#1e535a"/>
          <rect id="Rectángulo_466008" data-name="Rectángulo 466008" width="6.583" height="2.185" transform="translate(4.361 26.213)" fill="#1e535a"/>
          <rect id="Rectángulo_466009" data-name="Rectángulo 466009" width="6.582" height="2.178" transform="translate(4.357 21.87) rotate(-0.111)" fill="#1e535a"/>
          <path id="Trazado_1283237" data-name="Trazado 1283237" d="M279.738,27.071l1.51-1.569,1.477,1.373,3.576-3.581,1.558,1.565-5.148,5.175Z" transform="translate(-223.691 -18.627)" fill="#1e535a"/>
          <path id="Trazado_1283238" data-name="Trazado 1283238" d="M288.847,92.022,287.54,90.1l-1.258,1.877-1.85-1.186,1.81-2.656-1.8-2.693,1.837-1.2,1.279,1.892,1.281-1.9,1.8,1.234L288.86,88.1l1.763,2.641Z" transform="translate(-227.444 -67.349)" fill="#1e535a"/>
          <rect id="Rectángulo_466010" data-name="Rectángulo 466010" width="2.18" height="2.215" transform="translate(39.365 32.77)" fill="#1e535a"/>
          <rect id="Rectángulo_466011" data-name="Rectángulo 466011" width="2.182" height="2.215" transform="translate(26.214 32.77)" fill="#1e535a"/>
          <rect id="Rectángulo_466012" data-name="Rectángulo 466012" width="2.204" height="2.215" transform="translate(30.575 32.77)" fill="#1e535a"/>
          <rect id="Rectángulo_466013" data-name="Rectángulo 466013" width="2.204" height="2.215" transform="translate(34.983 32.77)" fill="#1e535a"/>
        </g>
      </g>
    </g>
  </g>
</svg>
